<?xml version="1.0" encoding="utf-8"?>
<!-- Generator: Adobe Illustrator 26.0.3, SVG Export Plug-In . SVG Version: 6.00 Build 0)  -->
<svg version="1.1" id="Layer_1" xmlns="http://www.w3.org/2000/svg" xmlns:xlink="http://www.w3.org/1999/xlink" x="0px" y="0px"
	 viewBox="0 0 574.7 531.6" style="enable-background:new 0 0 574.7 531.6;" xml:space="preserve">
<style type="text/css">
	.st0{fill:#F5931E;}
</style>
<path class="st0" d="M256.9,39.6c97.2,0,194.4,0,291.6,0c-0.6,1.3-1.1,2.7-1.7,4c-15,31.5-30.1,63-45.2,94.5
	c-1.9,4-3.8,8.1-5.6,12.2c-0.8,2-2.1,2.9-4.3,2.7c-1.6-0.1-3.2,0-4.8,0c-14,0-28,0-42,0c-31.7,0-63.5,0-95.2,0c-0.9,0-1.9,0-2.9,0.1
	c-20.1,37.2-40.1,74.3-60.1,111.5c-0.1,0.2,0,0.4-0.1,0.9c1.1,0,2.1,0,3.1,0c93.8,0,187.7,0,281.6,0c0.9,0,1.8,0,2.6,0
	c0.4,0,0.9,0.1,1.2,0.2c0,0.2,0.1,0.3,0.1,0.4c0,0.2,0,0.3-0.1,0.5c-0.1,0.3-0.2,0.6-0.4,0.9c-17.6,37-35.3,73.9-52.9,110.9
	c0,0.1-0.1,0.1-0.2,0.2c-0.1,0-0.1,0.1-0.4,0.3c-49,0-98.1,0-147.3,0c-10.2,18.9-20.4,37.8-30.6,56.6
	c-10.2,18.9-20.4,37.8-30.7,56.7c-1.1,0-1.9,0-2.8,0c-94.2,0-188.5,0-282.8-0.1c-0.1,0-0.2,0-0.2-0.1c0,0-0.1-0.1-0.1-0.2
	c0-0.2,0-0.3,0-0.5c18.8-37.1,37.7-74.2,56.5-111.3c0.1-0.3,0.3-0.5,0.5-0.8c0-0.1,0.1-0.1,0.2-0.1c0.1,0,0.1-0.1,0.5-0.3
	c47.1,0,94.4,0,141.7,0c0.3-0.6,0.6-1,0.8-1.5c3.8-7.5,7.7-15.1,11.5-22.6c11.3-22.2,22.6-44.4,33.9-66.6c3.3-6.5,6.6-13,9.9-19.5
	c0.3-0.7,1-1.3,0.6-2.3c-13.5,0-27,0-40.5,0c-13.5,0-27,0-40.5,0s-27,0-40.5,0s-27,0-40.5,0s-27,0-40.5,0s-27,0-40.5,0
	c-13.5,0-27-0.1-40.5,0c-0.3-0.8,0.4-1.3,0.7-1.9c1.5-2.7,3.1-5.2,4.4-8c10.8-21.3,21.5-42.6,32.3-63.9
	c6.2-12.3,12.6-24.6,18.9-36.9c0.4-0.8,0.9-1.7,1.4-2.6c47.4,0,94.7,0,142.1,0c0.5-0.9,0.9-1.6,1.3-2.4
	c8.9-17.4,17.7-34.9,26.6-52.3C237,78.6,247,59.1,256.9,39.6z"/>
</svg>
